<?xml version="1.0" encoding="iso-8859-1"?>
<!-- Generator: Adobe Illustrator 19.0.1, SVG Export Plug-In . SVG Version: 6.00 Build 0)  -->
<svg version="1.1" xmlns="http://www.w3.org/2000/svg" xmlns:xlink="http://www.w3.org/1999/xlink" x="0px" y="0px"
	 viewBox="0 0 128 128" style="enable-background:new 0 0 128 128;" xml:space="preserve">
<g id="_x38_">
	<path id="icon_7_" style="fill:#191919;" d="M64,128C28.71,128,0,99.289,0,64C0,28.71,28.71,0,64,0s64,28.71,64,64
		C128,99.289,99.29,128,64,128z M64,10.667c-29.408,0-53.333,23.926-53.333,53.333c0,29.409,23.926,53.333,53.333,53.333
		S117.333,93.409,117.333,64C117.333,34.592,93.408,10.667,64,10.667z M88.513,80.971L71.542,64l16.971-16.971l-7.542-7.542
		L64,56.458L47.029,39.487l-7.542,7.542L56.458,64L39.487,80.971l7.542,7.542L64,71.542l16.971,16.971L88.513,80.971z"/>
</g>
<g id="Layer_1">
</g>
</svg>
